<svg xmlns="http://www.w3.org/2000/svg" viewBox="0 0 200 300">
  <defs>
    <!-- Head radial gradient -->
    <radialGradient id="headGrad" cx="45%" cy="40%" r="50%">
      <stop offset="0%" stop-color="#FFFEF9"/>
      <stop offset="55%" stop-color="#F5F0E6"/>
      <stop offset="100%" stop-color="#E0D8C8"/>
    </radialGradient>

    <!-- Body gradient -->
    <linearGradient id="bodyGrad" x1="0%" y1="0%" x2="0%" y2="100%">
      <stop offset="0%" stop-color="#F8F3EA"/>
      <stop offset="40%" stop-color="#EDE5D5"/>
      <stop offset="100%" stop-color="#DCD0BA"/>
    </linearGradient>

    <!-- Skirt gradient -->
    <linearGradient id="skirtGrad" x1="0%" y1="0%" x2="0%" y2="100%">
      <stop offset="0%" stop-color="#F5F0E6"/>
      <stop offset="30%" stop-color="#EDE3D0"/>
      <stop offset="70%" stop-color="#E5D8C0"/>
      <stop offset="100%" stop-color="#D8C8A8"/>
    </linearGradient>

    <!-- Ribbon gradient -->
    <linearGradient id="ribbonGrad" x1="0%" y1="0%" x2="100%" y2="100%">
      <stop offset="0%" stop-color="#FF7EB3"/>
      <stop offset="50%" stop-color="#FF5599"/>
      <stop offset="100%" stop-color="#E84070"/>
    </linearGradient>

    <!-- Cheek blush -->
    <radialGradient id="blushGrad" cx="50%" cy="50%" r="50%">
      <stop offset="0%" stop-color="#FFB8C6" stop-opacity="0.7"/>
      <stop offset="100%" stop-color="#FFB8C6" stop-opacity="0"/>
    </radialGradient>

    <!-- Shadow filter -->
    <filter id="softShadow" x="-10%" y="-5%" width="120%" height="110%">
      <feDropShadow dx="0" dy="2" stdDeviation="3" flood-color="#00000020"/>
    </filter>
  </defs>

  <!-- ===== Hanging string ===== -->
  <path d="M100 0 Q98 25 100 50 Q102 60 100 65"
        stroke="#C8B898" stroke-width="1.2" fill="none" opacity="0.7"/>

  <!-- ===== Subtle back glow ring ===== -->
  <ellipse cx="100" cy="118" rx="66" ry="63" fill="none"
           stroke="#F0C040" stroke-width="1" opacity="0.1"/>
  <ellipse cx="100" cy="118" rx="60" ry="57" fill="none"
           stroke="#F0C040" stroke-width="0.6" opacity="0.06"/>

  <!-- ===== Head (cloth ball) ===== -->
  <circle cx="100" cy="118" r="52" fill="url(#headGrad)" filter="url(#softShadow)"/>

  <!-- Head highlight -->
  <ellipse cx="85" cy="98" rx="22" ry="18" fill="white" opacity="0.25"/>

  <!-- Head top gather wrinkles -->
  <path d="M85 69 Q100 75 115 69" stroke="#D5CBB5" stroke-width="0.6" fill="none" opacity="0.4"/>
  <path d="M78 71 Q100 78 122 71" stroke="#D5CBB5" stroke-width="0.5" fill="none" opacity="0.3"/>
  <path d="M80 73 Q100 81 120 73" stroke="#D5CBB5" stroke-width="0.5" fill="none" opacity="0.25"/>

  <!-- ===== Face ===== -->
  <!-- Left eye (anime - big with sparkle) -->
  <ellipse cx="80" cy="115" rx="7.5" ry="9" fill="#4A3520"/>
  <ellipse cx="78" cy="111" rx="3" ry="3.5" fill="white"/>
  <circle cx="82" cy="118" r="1.5" fill="white" opacity="0.6"/>

  <!-- Right eye -->
  <ellipse cx="120" cy="115" rx="7.5" ry="9" fill="#4A3520"/>
  <ellipse cx="118" cy="111" rx="3" ry="3.5" fill="white"/>
  <circle cx="122" cy="118" r="1.5" fill="white" opacity="0.6"/>

  <!-- Eyebrows -->
  <path d="M72 104 Q80 101 88 104" stroke="#8B7355" stroke-width="1" fill="none" opacity="0.5"/>
  <path d="M112 104 Q120 101 128 104" stroke="#8B7355" stroke-width="1" fill="none" opacity="0.5"/>

  <!-- Mouth -->
  <path d="M94 131 Q100 136 106 131" stroke="#D4877A" stroke-width="1.2"
        fill="none" stroke-linecap="round"/>

  <!-- Cheek blush -->
  <circle cx="67" cy="125" r="9" fill="url(#blushGrad)"/>
  <circle cx="133" cy="125" r="9" fill="url(#blushGrad)"/>

  <!-- ===== Neck tie ribbon ===== -->
  <path d="M74 165 Q100 174 126 165"
        stroke="url(#ribbonGrad)" stroke-width="3" fill="none" stroke-linecap="round"/>

  <!-- Ribbon bow center -->
  <ellipse cx="100" cy="170" rx="4" ry="3.5" fill="#FF4488"/>

  <!-- Ribbon bow left wing -->
  <path d="M96 170 Q78 163 72 171 Q76 174 96 173" fill="url(#ribbonGrad)"/>
  <!-- Ribbon bow right wing -->
  <path d="M104 170 Q122 163 128 171 Q124 174 104 173" fill="url(#ribbonGrad)"/>

  <!-- ===== Upper body (bodice / 上身) ===== -->
  <path d="M77 170 Q78 185 76 198 L124 198 Q122 185 123 170 Z"
        fill="url(#bodyGrad)" filter="url(#softShadow)"/>

  <!-- Bodice center seam -->
  <line x1="100" y1="175" x2="100" y2="198" stroke="#D5CBB5" stroke-width="0.5" opacity="0.3"/>

  <!-- ===== Skirt (裙摆) ===== -->
  <!-- Back layer (darker, visible at sides) -->
  <path d="M66 198
           Q50 218 42 250
           Q36 272 52 282
           Q72 294 100 296
           Q128 294 148 282
           Q164 272 158 250
           Q150 218 134 198 Z"
        fill="#D5C5A8" opacity="0.7"/>

  <!-- Front skirt panel -->
  <path d="M72 196
           Q58 215 52 245
           Q46 268 56 278
           Q76 290 100 292
           Q124 290 144 278
           Q154 268 148 245
           Q142 215 128 196 Z"
        fill="url(#skirtGrad)" filter="url(#softShadow)"/>

  <!-- Skirt pleat / fold lines -->
  <path d="M85 200 Q80 230 74 260 Q70 274 76 283"
        stroke="#D5CBB5" stroke-width="0.7" fill="none" opacity="0.35"/>
  <path d="M100 198 L100 288"
        stroke="#D5CBB5" stroke-width="0.6" fill="none" opacity="0.25"/>
  <path d="M115 200 Q120 230 126 260 Q130 274 124 283"
        stroke="#D5CBB5" stroke-width="0.7" fill="none" opacity="0.35"/>

  <!-- Skirt hem ruffle decoration -->
  <path d="M50 278 Q56 274 62 278 Q68 274 74 278
           Q80 274 86 278 Q92 274 98 278
           Q104 274 110 278 Q116 274 122 278
           Q128 274 134 278 Q140 274 146 278
           Q152 274 156 278"
        stroke="#C8B090" stroke-width="1.2" fill="none" opacity="0.4"/>

  <!-- Second ruffle line (upper) -->
  <path d="M54 273 Q60 270 66 273 Q72 270 78 273
           Q84 270 90 273 Q96 270 102 273
           Q108 270 114 273 Q120 270 126 273
           Q132 270 138 273 Q144 270 150 273"
        stroke="#C8B090" stroke-width="0.8" fill="none" opacity="0.3"/>

  <!-- Skirt waistband -->
  <path d="M72 195 Q86 192 100 190 Q114 192 128 195"
        stroke="#C8B090" stroke-width="1.5" fill="none" opacity="0.35"/>

  <!-- Side ruffle accents -->
  <path d="M42 242 Q34 250 40 260 Q44 250 48 244"
        stroke="#D0C0A0" stroke-width="0.8" fill="none" opacity="0.3"/>
  <path d="M158 242 Q166 250 160 260 Q156 250 152 244"
        stroke="#D0C0A0" stroke-width="0.8" fill="none" opacity="0.3"/>

  <!-- Skirt highlight -->
  <path d="M100 210 L100 260"
        stroke="white" stroke-width="4" fill="none" opacity="0.1"/>
</svg>
